<?xml version="1.0" standalone="no"?>
<!DOCTYPE svg PUBLIC "-//W3C//DTD SVG 20010904//EN"
 "http://www.w3.org/TR/2001/REC-SVG-20010904/DTD/svg10.dtd">
<svg version="1.0" xmlns="http://www.w3.org/2000/svg"
 width="1280.000000pt" height="960.000000pt" viewBox="0 0 1280.000000 960.000000"
 preserveAspectRatio="xMidYMid meet">

<g transform="translate(0.000000,960.000000) scale(0.100000,-0.100000)"
fill="#000000" stroke="none">
<path d="M5847 8004 c-4 -4 -26 -8 -49 -10 -24 -3 -55 -13 -70 -24 -15 -11
-32 -20 -39 -20 -11 0 -100 -76 -107 -91 -2 -4 -20 -25 -41 -48 -21 -23 -69
-88 -105 -144 -38 -58 -80 -111 -96 -121 -17 -9 -30 -26 -30 -37 0 -10 -3 -19
-8 -19 -9 0 -57 -72 -102 -155 -18 -33 -36 -62 -40 -65 -4 -3 -16 -25 -27 -50
-11 -25 -37 -72 -58 -105 -38 -59 -60 -96 -115 -202 -15 -28 -34 -59 -43 -68
-10 -9 -17 -24 -18 -33 0 -9 -11 -37 -24 -62 -13 -25 -31 -60 -40 -77 -8 -18
-20 -33 -25 -33 -6 0 -10 -13 -10 -28 0 -15 -4 -32 -10 -38 -15 -15 -110 -206
-110 -221 0 -7 -4 -21 -10 -31 -22 -40 -130 -271 -130 -277 0 -8 -22 -58 -66
-147 -12 -26 -39 -89 -59 -140 -20 -51 -44 -111 -55 -133 -10 -22 -26 -58 -35
-80 -10 -22 -23 -53 -31 -69 -8 -16 -14 -37 -14 -47 0 -10 -4 -20 -9 -24 -5
-3 -19 -36 -32 -73 -12 -37 -32 -89 -45 -115 -12 -26 -26 -62 -29 -80 -7 -34
-13 -54 -45 -157 -11 -36 -35 -126 -54 -200 -19 -74 -44 -163 -55 -198 -11
-35 -20 -66 -19 -70 2 -10 -11 -73 -21 -97 -12 -30 -41 -157 -41 -180 0 -11
-7 -32 -14 -47 -8 -15 -13 -44 -11 -65 2 -21 -5 -78 -16 -128 -10 -49 -19
-102 -19 -116 0 -15 -9 -38 -20 -52 -11 -14 -20 -28 -20 -32 0 -27 -205 -245
-408 -435 -61 -57 -114 -112 -117 -121 -3 -9 -32 -31 -64 -48 -41 -21 -62 -40
-71 -61 -7 -17 -34 -48 -59 -68 -25 -20 -50 -43 -54 -49 -4 -7 -13 -13 -19
-13 -6 0 -27 -15 -47 -32 -21 -18 -57 -49 -81 -68 -24 -19 -55 -45 -70 -57
-16 -13 -31 -23 -35 -23 -4 0 -25 -16 -48 -35 -22 -19 -45 -35 -51 -35 -6 0
-23 -11 -38 -25 -15 -14 -30 -25 -34 -25 -4 0 -25 -15 -48 -34 -23 -18 -60
-43 -83 -54 -23 -12 -44 -26 -48 -32 -3 -5 -25 -18 -48 -29 -49 -24 -73 -39
-99 -64 -10 -9 -24 -17 -32 -17 -7 0 -25 -11 -40 -25 -15 -14 -45 -28 -67 -31
-22 -4 -42 -10 -45 -15 -3 -5 -25 -6 -49 -2 -37 5 -47 2 -69 -20 -30 -30 -85
-59 -98 -51 -5 3 -14 1 -21 -4 -18 -15 -172 1 -183 19 -3 5 -14 9 -25 9 -11 0
-38 9 -60 19 -35 17 -47 18 -110 9 -81 -12 -129 -45 -155 -106 -13 -33 -13
-38 8 -81 53 -110 140 -180 243 -196 59 -9 128 -27 141 -36 6 -5 48 -6 93 -3
54 3 87 1 96 -6 10 -9 30 -7 77 6 35 9 90 20 123 24 68 7 141 27 170 47 11 7
26 13 34 13 14 0 59 19 159 67 61 30 226 139 267 177 15 14 52 37 81 51 30 14
54 30 54 35 0 6 42 41 93 79 50 38 110 86 132 105 22 20 56 49 75 65 19 16 63
53 98 83 35 29 84 69 110 88 26 19 79 67 117 105 121 121 258 245 264 239 3
-3 6 -29 7 -57 2 -106 25 -395 39 -489 8 -54 24 -116 35 -137 11 -22 20 -46
20 -53 0 -7 8 -29 19 -48 10 -19 24 -59 31 -88 7 -32 19 -56 29 -59 20 -8 51
-39 51 -53 0 -5 19 -27 42 -48 23 -20 61 -58 85 -83 49 -52 124 -94 154 -86
13 3 38 -6 67 -26 42 -29 53 -31 136 -32 68 -1 96 2 109 14 11 9 34 14 58 13
27 -2 49 4 69 18 18 13 46 21 72 22 27 1 51 9 65 21 13 12 29 17 41 13 15 -5
26 1 43 23 13 16 48 41 78 56 69 34 303 189 333 220 48 51 57 59 106 106 28
27 54 49 58 49 6 0 77 60 130 110 12 11 26 20 32 20 6 0 17 10 23 22 7 13 26
34 43 48 36 30 99 92 142 140 34 38 71 70 80 70 4 0 4 -12 1 -27 -6 -33 12
-244 23 -258 4 -5 10 -27 14 -47 4 -21 11 -38 16 -38 4 0 11 -13 15 -29 3 -16
15 -37 26 -47 10 -9 19 -21 19 -25 0 -4 16 -25 35 -46 19 -21 37 -46 40 -55 3
-9 26 -28 50 -42 24 -14 47 -35 50 -46 3 -11 15 -20 26 -20 10 0 19 -5 19 -12
0 -6 3 -9 6 -5 4 3 13 -1 21 -9 9 -8 25 -14 37 -13 11 2 41 -4 66 -13 73 -27
156 -31 219 -12 31 10 60 21 65 26 6 4 22 8 37 8 15 0 34 7 43 15 8 8 19 15
25 15 6 0 19 9 29 20 10 11 35 28 55 38 20 9 66 46 104 82 37 36 84 77 104 91
20 15 59 49 88 75 29 27 77 72 107 99 31 28 67 62 82 78 14 15 30 27 36 27 6
1 31 25 56 55 24 30 51 57 60 60 8 3 31 24 50 47 52 65 164 163 185 163 19 0
28 -21 42 -100 3 -16 16 -58 29 -92 13 -34 24 -71 24 -84 0 -38 49 -110 134
-197 65 -66 98 -91 166 -125 84 -41 87 -42 180 -39 52 1 111 4 130 7 19 2 58
6 87 9 57 5 113 22 158 48 17 10 36 18 43 18 16 0 66 48 75 73 3 9 17 21 30
26 12 5 31 21 42 36 11 15 25 32 30 39 6 6 25 36 43 66 17 30 56 81 87 114 31
32 65 77 74 100 10 23 25 47 34 54 9 8 26 35 38 60 13 26 32 61 44 77 20 27
108 182 157 275 37 71 51 116 55 177 5 81 -11 109 -66 111 -49 2 -68 -16 -241
-223 -65 -77 -75 -88 -101 -111 -20 -17 -64 -67 -97 -109 -40 -51 -173 -209
-205 -245 -23 -25 -53 -58 -67 -75 -14 -16 -38 -36 -53 -44 -15 -8 -27 -18
-27 -23 0 -11 -53 -57 -83 -74 -25 -14 -82 -10 -117 8 -36 18 -119 85 -140
111 -10 12 -37 60 -60 107 l-43 85 12 58 c7 31 9 62 6 68 -14 22 -16 130 -3
146 7 9 13 43 14 82 0 36 4 77 8 90 8 23 105 167 155 228 14 18 38 48 52 65
15 18 35 51 47 73 11 22 31 52 43 66 82 89 149 184 149 211 0 5 21 36 48 69
99 126 113 145 137 196 14 28 31 57 37 65 27 28 68 95 68 110 0 9 6 18 13 21
8 3 24 27 37 53 12 27 37 72 56 101 18 29 36 64 40 78 3 14 13 25 20 25 8 0
17 8 20 18 3 9 9 26 14 37 4 11 13 45 20 75 7 30 20 60 29 66 12 9 16 35 17
115 2 144 12 273 23 302 5 13 6 30 1 37 -4 7 -7 54 -5 104 2 70 0 95 -12 108
-8 9 -12 22 -8 27 3 6 2 11 -4 11 -6 0 -13 11 -17 25 -7 27 -39 41 -72 31 -11
-4 -24 0 -32 9 -7 8 -21 15 -31 15 -10 0 -30 5 -44 12 -20 9 -36 8 -83 -8 -31
-10 -75 -30 -97 -44 -48 -30 -141 -120 -181 -175 -16 -22 -47 -63 -69 -91 -22
-28 -58 -77 -80 -108 -22 -32 -56 -79 -76 -105 -20 -26 -44 -61 -53 -77 -10
-16 -30 -51 -47 -79 -16 -27 -43 -77 -60 -110 -18 -33 -40 -71 -50 -84 -10
-13 -16 -27 -14 -32 3 -4 -8 -30 -25 -57 -16 -27 -30 -57 -30 -66 0 -9 -9 -34
-19 -54 -28 -54 -45 -95 -46 -112 -1 -8 -4 -22 -8 -30 -37 -79 -111 -320 -142
-460 -9 -41 -21 -93 -27 -115 -6 -22 -26 -116 -44 -210 -44 -218 -43 -215 -54
-236 -6 -10 -8 -24 -5 -31 3 -8 -7 -27 -23 -43 -16 -17 -31 -35 -33 -42 -9
-27 -297 -343 -313 -343 -3 0 -63 -57 -134 -127 -71 -71 -147 -140 -170 -156
-23 -15 -65 -51 -95 -80 -75 -75 -108 -102 -144 -121 -18 -9 -33 -21 -33 -26
0 -6 -6 -10 -13 -10 -7 0 -23 -11 -35 -25 -12 -13 -32 -27 -46 -31 -13 -3 -27
-12 -30 -20 -7 -19 -108 -66 -145 -68 -16 -1 -33 -4 -36 -8 -12 -11 -49 12
-67 40 -9 15 -27 43 -42 62 -63 87 -74 411 -21 635 15 61 29 127 32 148 3 25
13 43 29 54 13 8 24 22 24 31 0 18 76 122 89 122 5 0 13 11 18 24 4 14 27 46
50 73 51 59 113 141 113 149 0 4 15 23 33 44 49 56 67 80 67 87 0 4 31 48 70
99 38 50 70 96 70 102 0 6 6 15 14 19 7 4 26 35 41 68 16 33 36 66 46 72 9 7
25 33 35 58 9 25 21 45 26 45 5 0 6 4 3 10 -8 13 22 58 63 94 35 31 72 94 72
123 0 10 10 28 23 39 12 12 28 35 36 50 7 16 17 37 22 46 5 10 9 24 9 32 0 8
14 36 31 61 17 25 46 76 66 113 19 37 43 75 54 85 10 10 19 27 19 38 0 12 8
33 19 47 10 15 24 44 30 64 7 20 19 42 27 49 8 6 36 57 62 113 71 147 76 160
73 174 -1 8 5 22 14 32 19 22 24 102 8 145 -6 17 -18 68 -27 115 -23 127 -66
202 -123 214 -17 4 -34 14 -37 22 -3 8 -16 14 -30 14 -14 0 -28 5 -31 10 -11
17 -132 12 -168 -8 -40 -22 -180 -112 -187 -121 -3 -3 -22 -15 -42 -26 -22
-11 -38 -27 -38 -37 0 -10 -4 -18 -9 -18 -6 0 -16 -12 -23 -27 -8 -16 -23 -29
-36 -31 -13 -2 -32 -19 -46 -40 -13 -21 -35 -44 -50 -51 -26 -14 -71 -69 -128
-154 -27 -42 -63 -88 -87 -114 -16 -16 -40 -58 -66 -113 -9 -19 -24 -44 -35
-55 -10 -11 -22 -33 -26 -50 -4 -16 -29 -74 -56 -127 -26 -53 -48 -103 -48
-110 0 -7 -11 -29 -24 -48 -12 -19 -26 -52 -30 -72 -6 -32 -19 -69 -56 -153
-5 -11 -16 -46 -25 -77 -8 -31 -19 -59 -24 -63 -5 -3 -12 -23 -16 -45 -4 -22
-10 -42 -15 -45 -4 -3 -13 -29 -20 -57 -16 -69 -65 -236 -94 -318 -13 -36 -29
-85 -35 -110 -7 -25 -18 -65 -26 -90 -7 -25 -16 -67 -19 -95 -4 -27 -11 -63
-16 -80 -5 -16 -19 -64 -31 -105 -34 -121 -52 -161 -81 -183 -16 -11 -28 -25
-28 -30 0 -8 -57 -80 -105 -132 -131 -143 -370 -384 -405 -408 -25 -16 -72
-56 -105 -88 -102 -99 -196 -179 -242 -205 -23 -14 -43 -30 -43 -35 0 -5 -7
-9 -17 -9 -9 0 -31 -18 -50 -40 -19 -22 -41 -40 -48 -40 -7 0 -25 -13 -38 -30
-29 -34 -134 -100 -159 -100 -10 0 -27 -10 -38 -22 -17 -18 -33 -23 -75 -24
-30 0 -60 -6 -68 -12 -35 -29 -207 -17 -207 14 0 8 -9 14 -19 14 -12 0 -26 14
-38 38 -11 20 -28 53 -38 72 -51 96 -48 87 -79 298 -8 56 -12 146 -10 230 2
75 6 227 8 337 6 260 10 296 49 374 30 64 55 96 142 187 22 23 60 69 85 103
25 34 79 106 120 160 76 99 92 122 118 176 8 17 39 56 69 87 29 31 53 63 53
70 0 8 13 24 29 35 16 12 67 74 115 137 48 63 91 118 97 122 6 3 14 16 20 27
5 12 25 42 44 67 19 25 46 61 59 80 13 19 35 46 50 59 14 14 26 30 26 38 0 7
5 13 10 13 6 0 10 6 10 13 0 7 8 22 18 33 10 10 33 41 52 68 19 27 52 67 73
90 20 22 37 44 37 49 0 4 11 25 25 47 14 22 25 48 25 58 0 9 9 25 20 35 11 9
20 23 20 31 0 7 8 24 18 37 11 13 22 37 26 53 4 15 15 30 26 33 10 3 21 15 24
26 3 12 24 51 47 86 23 35 46 84 51 109 4 25 12 49 18 52 14 8 70 93 70 106 0
6 7 17 15 24 8 7 13 16 10 20 -3 4 2 13 10 20 8 7 15 21 15 31 0 11 4 19 9 19
5 0 12 12 15 26 4 15 17 41 30 58 13 17 26 43 30 59 4 15 15 36 25 46 10 10
24 46 32 81 8 35 19 69 25 75 6 6 14 21 18 32 4 12 18 38 31 58 14 19 24 39
23 43 -3 17 68 222 93 266 6 10 13 46 16 78 2 33 13 74 23 91 18 33 33 147 31
247 -1 30 4 78 11 105 8 29 11 69 7 95 -4 25 -3 50 2 55 4 6 3 31 -2 55 -6 25
-8 55 -6 67 2 12 -4 35 -14 50 -11 15 -19 43 -19 61 0 24 -10 41 -40 71 -22
21 -40 43 -40 48 0 14 -58 73 -72 73 -7 0 -22 14 -33 30 -14 21 -33 34 -63 42
-23 6 -44 14 -47 18 -3 4 -21 4 -42 0 -21 -5 -44 -5 -54 1 -20 10 -53 12 -62
3z m109 -407 c5 -13 11 -71 13 -130 2 -87 -4 -135 -29 -260 -17 -83 -36 -168
-42 -187 -15 -47 -41 -104 -50 -108 -5 -2 -8 -16 -8 -31 0 -37 -19 -93 -37
-107 -7 -7 -18 -38 -23 -69 -5 -32 -15 -65 -23 -74 -7 -9 -24 -47 -37 -86 -13
-38 -31 -81 -41 -95 -9 -14 -22 -45 -29 -69 -6 -24 -22 -60 -34 -80 -12 -20
-56 -103 -96 -186 -41 -82 -93 -178 -117 -212 -24 -34 -43 -68 -43 -76 0 -8
-7 -20 -15 -27 -9 -7 -22 -27 -30 -44 -8 -17 -26 -43 -40 -58 -14 -15 -25 -34
-25 -41 0 -8 -6 -20 -14 -26 -8 -7 -17 -23 -20 -36 -4 -14 -11 -25 -16 -25 -6
0 -10 -7 -10 -15 0 -8 -9 -23 -20 -32 -11 -10 -20 -21 -20 -26 0 -5 -20 -34
-45 -66 -25 -31 -45 -62 -45 -68 0 -5 -9 -18 -19 -27 -11 -10 -22 -29 -26 -43
-3 -14 -26 -50 -51 -80 -24 -30 -44 -58 -44 -61 0 -4 -16 -25 -36 -46 -20 -22
-42 -54 -51 -70 -9 -17 -31 -50 -49 -73 -19 -23 -34 -46 -34 -52 0 -6 -6 -11
-12 -11 -11 0 -56 -57 -67 -85 -4 -12 -129 -173 -149 -194 -8 -8 -32 -38 -54
-68 -22 -29 -44 -53 -49 -53 -12 0 -11 57 1 65 6 4 8 10 5 15 -3 4 2 27 10 50
8 23 13 46 10 50 -3 5 0 21 6 37 6 15 15 37 19 48 5 11 13 40 19 65 7 25 13
52 15 60 3 8 11 29 20 45 9 17 16 38 16 49 0 22 33 129 62 201 11 28 23 66 28
85 4 19 14 52 23 74 10 21 17 46 17 56 0 9 15 46 33 81 19 35 37 77 41 93 4
17 16 42 27 57 10 15 19 32 19 39 0 16 38 98 49 104 5 3 12 21 15 39 3 18 22
62 41 97 19 36 44 84 55 107 11 23 25 45 30 48 4 3 11 18 15 35 3 16 15 47 26
69 10 22 19 47 19 55 0 8 4 17 9 20 5 3 12 21 15 40 4 19 15 45 26 59 11 14
20 30 20 37 0 6 13 34 29 63 16 29 32 67 36 85 3 17 20 45 36 61 16 16 29 36
29 45 0 8 4 17 9 20 4 3 11 18 14 34 3 15 21 50 39 77 19 28 40 65 47 83 8 17
17 32 22 32 5 0 25 34 45 75 19 42 41 78 49 82 8 3 15 11 15 18 0 8 11 26 23
42 13 15 27 41 31 56 4 16 18 39 31 51 14 13 25 29 25 36 0 8 7 21 16 31 9 10
23 33 32 51 10 18 23 34 30 34 6 1 17 2 22 3 6 0 10 8 10 17 0 9 18 36 40 60
22 24 40 52 40 61 1 20 23 53 36 53 5 0 20 9 34 20 14 11 35 20 48 20 13 0 22
6 22 15 0 23 24 18 36 -8z m1445 -2051 c-6 -12 -17 -47 -26 -78 -9 -32 -21
-60 -26 -63 -5 -4 -9 -12 -9 -19 0 -8 -31 -69 -69 -137 -69 -126 -97 -175
-146 -264 -36 -65 -83 -152 -102 -190 -9 -16 -26 -41 -39 -55 -12 -14 -34 -48
-49 -77 -14 -29 -36 -65 -48 -80 -24 -30 -52 -73 -108 -163 -52 -86 -70 -90
-49 -13 15 56 83 240 111 298 10 22 25 58 33 80 24 69 85 208 96 219 5 5 10
17 10 26 0 9 11 27 25 40 14 13 25 32 25 41 0 10 8 23 19 28 10 6 22 22 25 36
4 14 19 44 35 67 16 24 49 75 75 113 25 39 60 84 78 102 18 18 42 41 53 51 11
11 29 32 40 46 11 15 27 34 35 43 14 15 15 15 18 -7 2 -12 -1 -32 -7 -44z
m1428 -385 c-4 -27 -12 -57 -17 -67 -5 -11 -15 -41 -21 -69 -7 -27 -25 -77
-40 -110 -16 -33 -32 -67 -35 -75 -4 -8 -12 -24 -19 -35 -7 -11 -23 -38 -35
-60 -12 -22 -30 -52 -40 -66 -9 -15 -33 -53 -52 -84 -19 -32 -44 -71 -55 -89
-11 -17 -31 -48 -44 -68 -26 -42 -46 -50 -38 -15 3 12 11 51 18 87 7 36 21 77
31 92 10 14 21 41 25 60 3 18 12 37 20 41 7 4 13 19 13 32 0 13 8 38 17 57 9
18 20 41 24 50 26 54 93 175 105 189 8 8 14 25 14 37 0 12 4 22 10 22 5 0 23
19 40 42 17 23 43 49 58 59 15 10 27 18 28 18 1 1 -2 -21 -7 -48z m-2449
-3021 c8 -5 11 -10 5 -10 -5 0 -17 5 -25 10 -8 5 -10 10 -5 10 6 0 17 -5 25
-10z"/>
<path d="M2155 15 l-60 -13 61 -1 c44 -1 65 3 74 14 15 18 11 18 -75 0z"/>
<path d="M1868 3 c12 -2 30 -2 40 0 9 3 -1 5 -23 4 -22 0 -30 -2 -17 -4z"/>
</g>
</svg>
